<svg width="100" height="100" viewBox="0 0 100 100" fill="none" xmlns="http://www.w3.org/2000/svg">
<rect width="100" height="100" rx="50" fill="white"/>
<rect x="0.5" y="0.5" width="99" height="99" rx="49.5" stroke="#191825" stroke-opacity="0.1"/>
<path d="M44.4143 49.0005H58.0001C58.5524 49.0005 59.0001 49.4482 59.0001 50.0005C59.0001 50.5528 58.5524 51.0005 58.0001 51.0005H44.4143L47.6569 54.2432C48.0475 54.6337 48.0475 55.2669 47.6569 55.6574C47.2664 56.0479 46.6333 56.0479 46.2427 55.6574L42.0001 51.4147C41.219 50.6337 41.219 49.3674 42.0001 48.5863L46.2427 44.3437C46.6333 43.9532 47.2664 43.9532 47.6569 44.3437C48.0475 44.7342 48.0475 45.3674 47.6569 45.7579L44.4143 49.0005Z" fill="#191825"/>
</svg>
