<svg width="192" height="271" viewBox="0 0 192 271" fill="none" xmlns="http://www.w3.org/2000/svg">
<g filter="url(#filter0_ddddd_1156_928)">
<rect width="100" height="100" rx="50" transform="matrix(-1 0 0 1 146 9)" fill="#5D50C6"/>
<path d="M101.586 58.0005H87.9999C87.4476 58.0005 86.9999 58.4482 86.9999 59.0005C86.9999 59.5528 87.4476 60.0005 87.9999 60.0005H101.586L98.3431 63.2432C97.9525 63.6337 97.9525 64.2669 98.3431 64.6574C98.7336 65.0479 99.3667 65.0479 99.7573 64.6574L104 60.4147C104.781 59.6337 104.781 58.3674 104 57.5863L99.7573 53.3437C99.3667 52.9532 98.7336 52.9532 98.3431 53.3437C97.9525 53.7342 97.9525 54.3674 98.3431 54.7579L101.586 58.0005Z" fill="white"/>
</g>
<defs>
<filter id="filter0_ddddd_1156_928" x="0" y="0" width="192" height="271" filterUnits="userSpaceOnUse" color-interpolation-filters="sRGB">
<feFlood flood-opacity="0" result="BackgroundImageFix"/>
<feColorMatrix in="SourceAlpha" type="matrix" values="0 0 0 0 0 0 0 0 0 0 0 0 0 0 0 0 0 0 127 0" result="hardAlpha"/>
<feOffset/>
<feColorMatrix type="matrix" values="0 0 0 0 0 0 0 0 0 0 0 0 0 0 0 0 0 0 0.08 0"/>
<feBlend mode="normal" in2="BackgroundImageFix" result="effect1_dropShadow_1156_928"/>
<feColorMatrix in="SourceAlpha" type="matrix" values="0 0 0 0 0 0 0 0 0 0 0 0 0 0 0 0 0 0 127 0" result="hardAlpha"/>
<feOffset dy="7"/>
<feGaussianBlur stdDeviation="8"/>
<feColorMatrix type="matrix" values="0 0 0 0 0 0 0 0 0 0 0 0 0 0 0 0 0 0 0.07 0"/>
<feBlend mode="normal" in2="effect1_dropShadow_1156_928" result="effect2_dropShadow_1156_928"/>
<feColorMatrix in="SourceAlpha" type="matrix" values="0 0 0 0 0 0 0 0 0 0 0 0 0 0 0 0 0 0 127 0" result="hardAlpha"/>
<feOffset dy="29"/>
<feGaussianBlur stdDeviation="14.5"/>
<feColorMatrix type="matrix" values="0 0 0 0 0 0 0 0 0 0 0 0 0 0 0 0 0 0 0.06 0"/>
<feBlend mode="normal" in2="effect2_dropShadow_1156_928" result="effect3_dropShadow_1156_928"/>
<feColorMatrix in="SourceAlpha" type="matrix" values="0 0 0 0 0 0 0 0 0 0 0 0 0 0 0 0 0 0 127 0" result="hardAlpha"/>
<feOffset dy="65"/>
<feGaussianBlur stdDeviation="19.5"/>
<feColorMatrix type="matrix" values="0 0 0 0 0 0 0 0 0 0 0 0 0 0 0 0 0 0 0.04 0"/>
<feBlend mode="normal" in2="effect3_dropShadow_1156_928" result="effect4_dropShadow_1156_928"/>
<feColorMatrix in="SourceAlpha" type="matrix" values="0 0 0 0 0 0 0 0 0 0 0 0 0 0 0 0 0 0 127 0" result="hardAlpha"/>
<feOffset dy="116"/>
<feGaussianBlur stdDeviation="23"/>
<feColorMatrix type="matrix" values="0 0 0 0 0 0 0 0 0 0 0 0 0 0 0 0 0 0 0.01 0"/>
<feBlend mode="normal" in2="effect4_dropShadow_1156_928" result="effect5_dropShadow_1156_928"/>
<feBlend mode="normal" in="SourceGraphic" in2="effect5_dropShadow_1156_928" result="shape"/>
</filter>
</defs>
</svg>
